<svg xmlns="http://www.w3.org/2000/svg" viewBox="0 0 1024 1024" width="1024" height="1024" ><rect width="1024" height="1024" fill="#F7F0E4"/><circle cx="790" cy="230" r="86" fill="#F5C24D"/><path d="M0 560 Q300 440 620 520 T1024 540 V1024 H0 Z" fill="#C6DBA4"/>
          <path d="M0 700 Q500 600 1024 720 V1024 H0 Z" fill="#9DBF7A"/><ellipse cx="512" cy="720" rx="258" ry="98" fill="#B07A4E"/>
    <ellipse cx="512" cy="720" rx="250" ry="92" fill="#2B221C"/>
    <ellipse cx="512" cy="738.4" rx="200" ry="64.39999999999999" fill="#17110E"/><defs><clipPath id="c2crn4"><rect x="-2000" y="-2000" width="5000" height="2720"/></clipPath></defs><g clip-path="url(#c2crn4)"><g transform="translate(52.00000000000006 232.40000000000003) scale(4.6)"><g transform="rotate(-118 76 60)">
    <ellipse cx="76" cy="52" rx="16" ry="42" fill="#F0A35E" stroke="#1F1A17" stroke-width="3"/>
    <ellipse cx="76" cy="56" rx="7.5" ry="28" fill="#FFFBF4"/></g>
<g transform="rotate(118 124 60)">
    <ellipse cx="124" cy="52" rx="16" ry="42" fill="#F0A35E" stroke="#1F1A17" stroke-width="3"/>
    <ellipse cx="124" cy="56" rx="7.5" ry="28" fill="#FFFBF4"/></g>
<ellipse cx="100" cy="154" rx="56" ry="40" fill="#F0A35E" stroke="#1F1A17" stroke-width="3"/>
<ellipse cx="100" cy="162" rx="30" ry="24" fill="#FFFBF4"/>
<g transform="translate(48 146) rotate(45 0 14)"><ellipse cx="0" cy="14" rx="7.5" ry="14" fill="#F0A35E" stroke="#1F1A17" stroke-width="3"/></g>
<g transform="translate(152 146) rotate(-45 0 14)"><ellipse cx="0" cy="14" rx="7.5" ry="14" fill="#F0A35E" stroke="#1F1A17" stroke-width="3"/></g>
<ellipse cx="78" cy="188" rx="15" ry="8" fill="#F0A35E" stroke="#1F1A17" stroke-width="3"/><ellipse cx="122" cy="188" rx="15" ry="8" fill="#F0A35E" stroke="#1F1A17" stroke-width="3"/>
<ellipse cx="100" cy="102" rx="50" ry="46" fill="#F0A35E" stroke="#1F1A17" stroke-width="3"/>
<path d="M69 90 L85 85" stroke="#1F1A17" stroke-width="3" stroke-linecap="round"/>
               <path d="M131 90 L115 85" stroke="#1F1A17" stroke-width="3" stroke-linecap="round"/><path d="M73 100 a7 7 0 1 0 14 0 a7 7 0 1 0 -14 0 Z" fill="#1F1A17"/><path d="M113 100 a7 7 0 1 0 14 0 a7 7 0 1 0 -14 0 Z" fill="#1F1A17"/><circle cx="82.5" cy="97.5" r="2" fill="#FFFBF4"/><circle cx="122.5" cy="97.5" r="2" fill="#FFFBF4"/></g></g><path d="M254 720 A258 98 0 0 0 770 720 L762 720 A250 92 0 0 1 262 720 Z" fill="#B07A4E"/>
  <path d="M254 720 A258 98 0 0 0 770 720" fill="none" stroke="#7E5233" stroke-width="2.5"/>
  <path d="M262 720 A250 92 0 0 0 762 720" fill="none" stroke="#1F1A17" stroke-width="2.5" opacity="0.9"/><path transform="translate(202 750) scale(3.2)" d="M-8 0 q2 -9 5 -12 q0 8 0 12 M0 0 q0 -11 3 -15 q2 9 1 15 M8 0 q0 -8 5 -11 q-1 7 -3 11" fill="none" stroke="#6F934F" stroke-width="2.2" stroke-linecap="round"/><path transform="translate(812 760) scale(3.6)" d="M-8 0 q2 -9 5 -12 q0 8 0 12 M0 0 q0 -11 3 -15 q2 9 1 15 M8 0 q0 -8 5 -11 q-1 7 -3 11" fill="none" stroke="#6F934F" stroke-width="2.2" stroke-linecap="round"/><path transform="translate(140 900) scale(3)" d="M-8 0 q2 -9 5 -12 q0 8 0 12 M0 0 q0 -11 3 -15 q2 9 1 15 M8 0 q0 -8 5 -11 q-1 7 -3 11" fill="none" stroke="#6F934F" stroke-width="2.2" stroke-linecap="round"/><path transform="translate(900 930) scale(2.6)" d="M-8 0 q2 -9 5 -12 q0 8 0 12 M0 0 q0 -11 3 -15 q2 9 1 15 M8 0 q0 -8 5 -11 q-1 7 -3 11" fill="none" stroke="#6F934F" stroke-width="2.2" stroke-linecap="round"/></svg>