<svg xmlns="http://www.w3.org/2000/svg" viewBox="0 0 200 130" width="200" height="130" ><path d="M0 104 Q100 90 200 106 V130 H0 Z" fill="#C6DBA4"/><path d="M0 114 Q100 104 200 116 V130 H0 Z" fill="#9DBF7A"/><g transform="translate(20 8) scale(0.56)"><g transform="rotate(-12 76 60)">
    <ellipse cx="76" cy="52" rx="16" ry="42" fill="#F0A35E" stroke="#1F1A17" stroke-width="3"/>
    <ellipse cx="76" cy="56" rx="7.5" ry="28" fill="#FFFBF4"/></g>
<g transform="rotate(12 124 60)">
    <ellipse cx="124" cy="52" rx="16" ry="42" fill="#F0A35E" stroke="#1F1A17" stroke-width="3"/>
    <ellipse cx="124" cy="56" rx="7.5" ry="28" fill="#FFFBF4"/></g>
<ellipse cx="100" cy="154" rx="56" ry="40" fill="#F0A35E" stroke="#1F1A17" stroke-width="3"/>
<ellipse cx="100" cy="162" rx="30" ry="24" fill="#FFFBF4"/>
<g transform="translate(48 146) rotate(60 0 14)"><ellipse cx="0" cy="14" rx="7.5" ry="14" fill="#F0A35E" stroke="#1F1A17" stroke-width="3"/></g>
<g transform="translate(152 146) rotate(-145)"><ellipse cx="0" cy="14" rx="7.5" ry="14" fill="#F0A35E" stroke="#1F1A17" stroke-width="3"/></g>
<ellipse cx="78" cy="188" rx="15" ry="8" fill="#F0A35E" stroke="#1F1A17" stroke-width="3"/><ellipse cx="122" cy="188" rx="15" ry="8" fill="#F0A35E" stroke="#1F1A17" stroke-width="3"/>
<ellipse cx="100" cy="102" rx="50" ry="46" fill="#F0A35E" stroke="#1F1A17" stroke-width="3"/>
<circle cx="68" cy="116" r="8" fill="#E0553A" opacity="0.45"/><circle cx="132" cy="116" r="8" fill="#E0553A" opacity="0.45"/><path d="M72 102 Q80 92 88 102" fill="none" stroke="#1F1A17" stroke-width="3" stroke-linecap="round"/>
              <path d="M112 102 Q120 92 128 102" fill="none" stroke="#1F1A17" stroke-width="3" stroke-linecap="round"/><path d="M94 114 Q100 110 106 114 Q103 121 100 122 Q97 121 94 114 Z" fill="#E0553A"/><path d="M77 121 Q100 133 123 121 C123 136 112 142 100 142 C88 142 77 136 77 121 Z" fill="#1F1A17" stroke="#1F1A17" stroke-width="2.5" stroke-linejoin="round"/>
               <path d="M89 136 Q100 129 111 136 Q107 141.5 100 142 Q93 141.5 89 136 Z" fill="#E0553A"/>
               <path d="M95 127 h4.5 v4.5 a2 2 0 0 1 -2 2 h-0.5 a2 2 0 0 1 -2 -2 Z M100.5 127 h4.5 v4.5 a2 2 0 0 1 -2 2 h-0.5 a2 2 0 0 1 -2 -2 Z" fill="#FFFBF4" stroke="#1F1A17" stroke-width="1" stroke-linejoin="round"/>
               <path d="M100 122 v5 M77 121 Q100 133 123 121 C123 136 112 142 100 142 C88 142 77 136 77 121 Z" fill="none" stroke="#1F1A17" stroke-width="2.5" stroke-linecap="round" stroke-linejoin="round"/></g><g transform="translate(150 60)"><rect x="-4" y="0" width="8" height="50" fill="#7E5233"/><path d="M-4 4 h44 l8 10 l-8 10 h-44 Z" fill="#FFFBF4" stroke="#1F1A17" stroke-width="2.5"/><text x="18" y="18" font-family="Fraunces, Georgia, serif" font-style="italic" font-size="11" text-anchor="middle" fill="#1F1A17">gym</text></g></svg>