<svg xmlns="http://www.w3.org/2000/svg" viewBox="0 0 200 200" width="200" height="200" preserveAspectRatio="xMidYMid slice"><defs><linearGradient id="skytdsvd" x1="0" y1="0" x2="0" y2="1"><stop offset="0" stop-color="#F7F0E4"/><stop offset="1" stop-color="#F1E4CF"/></linearGradient></defs><rect width="200" height="200" fill="url(#skytdsvd)"/><circle cx="170" cy="34" r="14" fill="#F5C24D"/><path d="M0 136 Q70 104 140 124 T200 128 V200 H0 Z" fill="#C6DBA4"/>
  <path d="M0 156 Q100 128 200 160 V200 H0 Z" fill="#9DBF7A"/>
  <path d="M0 184 Q110.00000000000001 160 200 192 V200 H0 Z" fill="#6F934F" opacity="0.55"/><path transform="translate(16 180) scale(0.8)" d="M-8 0 q2 -9 5 -12 q0 8 0 12 M0 0 q0 -11 3 -15 q2 9 1 15 M8 0 q0 -8 5 -11 q-1 7 -3 11" fill="none" stroke="#6F934F" stroke-width="2.2" stroke-linecap="round"/><path transform="translate(184 192) scale(0.7)" d="M-8 0 q2 -9 5 -12 q0 8 0 12 M0 0 q0 -11 3 -15 q2 9 1 15 M8 0 q0 -8 5 -11 q-1 7 -3 11" fill="none" stroke="#6F934F" stroke-width="2.2" stroke-linecap="round"/><ellipse cx="122" cy="176" rx="52" ry="20" fill="#B07A4E"/>
    <ellipse cx="122" cy="176" rx="44" ry="14" fill="#2B221C"/>
    <ellipse cx="122" cy="178.8" rx="35.2" ry="9.799999999999999" fill="#17110E"/><defs><clipPath id="cwalmv"><rect x="-2000" y="-2000" width="5000" height="2176"/></clipPath></defs><g clip-path="url(#cwalmv)"><g transform="translate(66 93.11999999999999) scale(0.56)"><g transform="rotate(-70 76 60)">
    <ellipse cx="76" cy="52" rx="16" ry="42" fill="#F0A35E" stroke="#1F1A17" stroke-width="3"/>
    <ellipse cx="76" cy="56" rx="7.5" ry="28" fill="#FFFBF4"/></g>
<g transform="rotate(70 124 60)">
    <ellipse cx="124" cy="52" rx="16" ry="42" fill="#F0A35E" stroke="#1F1A17" stroke-width="3"/>
    <ellipse cx="124" cy="56" rx="7.5" ry="28" fill="#FFFBF4"/></g>
<ellipse cx="100" cy="154" rx="56" ry="40" fill="#F0A35E" stroke="#1F1A17" stroke-width="3"/>
<ellipse cx="100" cy="162" rx="30" ry="24" fill="#FFFBF4"/>
<ellipse cx="100" cy="102" rx="50" ry="46" fill="#F0A35E" stroke="#1F1A17" stroke-width="3"/>
<circle cx="68" cy="116" r="8" fill="#E0553A" opacity="0.45"/><circle cx="132" cy="116" r="8" fill="#E0553A" opacity="0.45"/><path d="M69 90 L85 85" stroke="#1F1A17" stroke-width="3" stroke-linecap="round"/>
               <path d="M131 90 L115 85" stroke="#1F1A17" stroke-width="3" stroke-linecap="round"/><path d="M73 100 a7 7 0 1 0 14 0 a7 7 0 1 0 -14 0 Z" fill="#1F1A17"/><path d="M113 100 a7 7 0 1 0 14 0 a7 7 0 1 0 -14 0 Z" fill="#1F1A17"/><circle cx="82.5" cy="97.5" r="2" fill="#FFFBF4"/><circle cx="122.5" cy="97.5" r="2" fill="#FFFBF4"/><circle cx="77" cy="103" r="1.3" fill="#FFFBF4"/><circle cx="117" cy="103" r="1.3" fill="#FFFBF4"/><path d="M94 114 Q100 110 106 114 Q103 121 100 122 Q97 121 94 114 Z" fill="#E0553A"/><path d="M100 122 v6 M92 134 Q100 127 108 134" fill="none" stroke="#1F1A17" stroke-width="2.5" stroke-linecap="round" stroke-linejoin="round"/>
               <path d="M97.75 128 h4.5 v4.5 a2 2 0 0 1 -2 2 h-0.5 a2 2 0 0 1 -2 -2 Z" fill="#FFFBF4" stroke="#1F1A17" stroke-width="1" stroke-linejoin="round"/>
<g transform="translate(56 132) rotate(100 0 14)"><ellipse cx="0" cy="14" rx="7.5" ry="14" fill="#F0A35E" stroke="#1F1A17" stroke-width="3"/></g>
<g transform="translate(144 132) rotate(-100 0 14)"><ellipse cx="0" cy="14" rx="7.5" ry="14" fill="#F0A35E" stroke="#1F1A17" stroke-width="3"/></g></g></g><path d="M70 176 A52 20 0 0 0 174 176 L166 176 A44 14 0 0 1 78 176 Z" fill="#B07A4E"/>
  <path d="M70 176 A52 20 0 0 0 174 176" fill="none" stroke="#7E5233" stroke-width="2.5"/>
  <path d="M78 176 A44 14 0 0 0 166 176" fill="none" stroke="#1F1A17" stroke-width="2.5" opacity="0.9"/></svg>